<?xml version="1.0" encoding="UTF-8" standalone="no"?>
<!-- Created with Inkscape (http://www.inkscape.org/) -->

<svg
   xmlns:dc="http://purl.org/dc/elements/1.1/"
   xmlns:cc="http://creativecommons.org/ns#"
   xmlns:rdf="http://www.w3.org/1999/02/22-rdf-syntax-ns#"
   xmlns:svg="http://www.w3.org/2000/svg"
   xmlns="http://www.w3.org/2000/svg"
   xmlns:sodipodi="http://sodipodi.sourceforge.net/DTD/sodipodi-0.dtd"
   xmlns:inkscape="http://www.inkscape.org/namespaces/inkscape"
   width="44.93486mm"
   height="24.08823mm"
   viewBox="0 0 159.21801 85.351996"
   id="svg5823"
   version="1.1"
   inkscape:version="0.91 r13725"
   sodipodi:docname="logo_color_inverted.svg">
  <defs
     id="defs5825" />
  <sodipodi:namedview
     id="base"
     pagecolor="#ffffff"
     bordercolor="#666666"
     borderopacity="1.0"
     inkscape:pageopacity="0.0"
     inkscape:pageshadow="2"
     inkscape:zoom="2.8"
     inkscape:cx="69.165512"
     inkscape:cy="59.438974"
     inkscape:document-units="px"
     inkscape:current-layer="layer1"
     showgrid="false"
     fit-margin-top="0"
     fit-margin-left="0"
     fit-margin-right="0"
     fit-margin-bottom="0"
     inkscape:window-width="1280"
     inkscape:window-height="983"
     inkscape:window-x="0"
     inkscape:window-y="0"
     inkscape:window-maximized="1" />
  <metadata
     id="metadata5828">
    <rdf:RDF>
      <cc:Work
         rdf:about="">
        <dc:format>image/svg+xml</dc:format>
        <dc:type
           rdf:resource="http://purl.org/dc/dcmitype/StillImage" />
        <dc:title></dc:title>
        <dc:rights>
          <cc:Agent>
            <dc:title>Copyright 2016, EPC Power Corp.</dc:title>
          </cc:Agent>
        </dc:rights>
      </cc:Work>
    </rdf:RDF>
  </metadata>
  <g
     inkscape:label="Layer 1"
     inkscape:groupmode="layer"
     id="layer1"
     transform="translate(-488.96243,678.88522)">
    <g
       id="g4503">
      <rect
         y="-678.88525"
         x="488.96243"
         height="85.351997"
         width="159.218"
         id="rect5862"
         style="opacity:1;fill:#000000;stroke:none;stroke-width:6.79699612;stroke-linecap:round;stroke-miterlimit:4;stroke-dasharray:none;stroke-opacity:0.5" />
      <g
         id="g4417">
        <g
           id="g4818"
           transform="translate(-618.47377,-1748.2699)">
          <g
             transform="matrix(1.25,0,0,-1.25,1195.4585,1086.4942)"
             id="g4162">
            <path
               inkscape:connector-curvature="0"
               id="path4164"
               style="fill:#3577c2;fill-opacity:1;fill-rule:nonzero;stroke:none"
               d="m 0,0 0,4.835 0,3.473 c -9.696,-4.493 -19.393,4.648 -29.09,0.05 l 0,-3.523 0,-4.784 C -19.393,4.648 -9.696,-4.492 0,0" />
          </g>
          <g
             transform="matrix(1.25,0,0,-1.25,1159.0965,1089.7333)"
             id="g4166">
            <path
               inkscape:connector-curvature="0"
               id="path4168"
               style="fill:#3577c2;fill-opacity:1;fill-rule:nonzero;stroke:none"
               d="m 0,0 0,-2.308 0,-2.685 0,-3.315 c 9.697,4.598 19.393,-4.542 29.09,-0.05 l 0,3.365 0,2.685 0,2.257 C 19.393,-4.543 9.697,4.598 0,0" />
          </g>
          <g
             transform="matrix(1.25,0,0,-1.25,1158.9563,1103.5603)"
             id="g4170">
            <path
               inkscape:connector-curvature="0"
               id="path4172"
               style="fill:#3577c2;fill-opacity:1;fill-rule:nonzero;stroke:none"
               d="m 0,0 0,-3.665 0,-4.642 c 9.734,4.615 19.469,-4.616 29.202,0 l 0,4.642 0,3.665 C 19.469,-4.615 9.734,4.615 0,0" />
          </g>
          <g
             transform="matrix(1.25,0,0,-1.25,1185.5613,1136.1158)"
             id="g4186">
            <path
               inkscape:connector-curvature="0"
               id="path4188"
               style="fill:#3577c2;fill-opacity:1;fill-rule:nonzero;stroke:none"
               d="m 0,0 c -0.542,0 -1.002,0.189 -1.38,0.567 -0.177,0.177 -0.316,0.381 -0.416,0.615 -0.101,0.233 -0.152,0.482 -0.152,0.747 l 0,1.777 c 0,0.277 0.051,0.533 0.152,0.766 0.1,0.233 0.239,0.438 0.416,0.615 0.378,0.378 0.838,0.567 1.38,0.567 l 4.973,0 c 0.542,0 1.002,-0.189 1.38,-0.567 C 6.53,4.91 6.668,4.705 6.769,4.472 6.87,4.239 6.921,3.983 6.921,3.706 l 0,-1.777 C 6.921,1.664 6.87,1.415 6.769,1.182 6.668,0.948 6.53,0.744 6.353,0.567 5.975,0.189 5.515,0 4.973,0 L 0,0 Z m 6.656,-1.74 c 0.479,0.202 0.901,0.485 1.267,0.851 0.365,0.366 0.649,0.785 0.851,1.258 0.201,0.472 0.302,0.986 0.302,1.541 l 0,1.815 C 9.076,4.28 8.975,4.796 8.774,5.276 8.572,5.755 8.288,6.177 7.923,6.543 7.557,6.908 7.135,7.192 6.656,7.393 6.177,7.595 5.66,7.696 5.105,7.696 l -5.237,0 C -0.687,7.696 -1.204,7.595 -1.683,7.393 -2.162,7.192 -2.578,6.908 -2.931,6.543 -3.297,6.177 -3.583,5.755 -3.791,5.276 -3.999,4.796 -4.103,4.28 -4.103,3.725 l 0,-1.815 c 0,-0.555 0.104,-1.069 0.312,-1.541 0.208,-0.473 0.494,-0.892 0.86,-1.258 0.353,-0.366 0.769,-0.649 1.248,-0.851 0.479,-0.201 0.996,-0.302 1.551,-0.302 l 5.237,0 c 0.555,0 1.072,0.101 1.551,0.302" />
          </g>
          <g
             transform="matrix(1.25,0,0,-1.25,1260.2275,1127.9377)"
             id="g4190">
            <path
               inkscape:connector-curvature="0"
               id="path4192"
               style="fill:#3577c2;fill-opacity:1;fill-rule:nonzero;stroke:none"
               d="m 0,0 c -0.366,0.365 -0.788,0.649 -1.267,0.851 -0.479,0.201 -0.996,0.302 -1.55,0.302 l -5.238,0 C -8.61,1.153 -9.127,1.052 -9.606,0.851 -10.085,0.649 -10.507,0.365 -10.873,0 c -0.365,-0.366 -0.649,-0.788 -0.851,-1.267 -0.201,-0.479 -0.302,-0.996 -0.302,-1.55 l 0,-5.768 2.156,0 0,5.749 c 0,0.277 0.05,0.532 0.151,0.765 0.101,0.234 0.239,0.438 0.416,0.615 0.378,0.378 0.838,0.567 1.38,0.567 l 4.992,0 c 0.265,0 0.514,-0.05 0.747,-0.151 0.233,-0.101 0.438,-0.24 0.615,-0.416 0.176,-0.177 0.315,-0.381 0.416,-0.615 0.1,-0.233 0.151,-0.488 0.151,-0.765 l 2.155,0.019 c 0,0.554 -0.104,1.071 -0.312,1.55 C 0.633,-0.788 0.353,-0.366 0,0" />
          </g>
          <g
             transform="matrix(1.25,0,0,-1.25,1229.5243,1131.4596)"
             id="g4194">
            <path
               inkscape:connector-curvature="0"
               id="path4196"
               style="fill:#3577c2;fill-opacity:1;fill-rule:nonzero;stroke:none"
               d="M 0,0 C 0,0.265 0.05,0.514 0.151,0.747 0.252,0.98 0.391,1.185 0.567,1.361 0.945,1.74 1.405,1.929 1.948,1.929 l 4.973,0 C 7.463,1.929 7.923,1.74 8.301,1.361 8.477,1.185 8.616,0.98 8.717,0.747 8.818,0.514 8.868,0.265 8.868,0 L 0,0 Z M 9.87,2.817 C 9.505,3.183 9.082,3.467 8.604,3.668 8.124,3.87 7.608,3.971 7.053,3.971 l -5.238,0 C 1.26,3.971 0.744,3.87 0.265,3.668 -0.215,3.467 -0.63,3.183 -0.983,2.817 -1.349,2.452 -1.636,2.033 -1.844,1.56 -2.052,1.087 -2.156,0.573 -2.156,0.019 l 0,-1.815 c 0,-0.555 0.104,-1.072 0.312,-1.551 0.208,-0.479 0.495,-0.901 0.861,-1.267 0.353,-0.366 0.768,-0.649 1.248,-0.851 0.479,-0.201 0.995,-0.302 1.55,-0.302 l 8.018,0 0,2.042 -7.885,0 c -0.543,0 -1.003,0.189 -1.381,0.567 -0.139,0.151 -0.258,0.322 -0.359,0.511 -0.101,0.189 -0.164,0.39 -0.189,0.605 l 11.005,0 0,2.061 c 0,0.554 -0.101,1.068 -0.303,1.541 C 10.52,2.033 10.236,2.452 9.87,2.817" />
          </g>
          <g
             transform="matrix(1.25,0,0,-1.25,1224.939,1133.7286)"
             id="g4198">
            <path
               inkscape:connector-curvature="0"
               id="path4200"
               style="fill:#3577c2;fill-opacity:1;fill-rule:nonzero;stroke:none"
               d="m 0,0 0,5.786 -2.156,0 0,-5.767 c 0,-0.265 -0.05,-0.514 -0.151,-0.747 -0.101,-0.233 -0.24,-0.438 -0.416,-0.615 -0.378,-0.378 -0.838,-0.567 -1.38,-0.567 l -3.328,0 c -0.555,0 -1.009,0.189 -1.362,0.567 -0.378,0.353 -0.567,0.807 -0.567,1.362 l 0,5.767 -2.175,0 0,-5.767 c 0,-0.555 -0.189,-1.009 -0.567,-1.362 -0.353,-0.378 -0.807,-0.567 -1.361,-0.567 l -3.328,0 c -0.542,0 -1.002,0.189 -1.381,0.567 -0.176,0.177 -0.315,0.382 -0.416,0.615 -0.101,0.233 -0.151,0.482 -0.151,0.747 l 0,5.767 -2.155,0 0,-5.786 c 0,-0.542 0.104,-1.053 0.312,-1.532 0.208,-0.479 0.494,-0.901 0.86,-1.267 0.353,-0.365 0.769,-0.649 1.248,-0.85 0.479,-0.202 0.996,-0.303 1.55,-0.303 l 3.593,0 c 0.567,0 1.1,0.11 1.598,0.331 0.498,0.22 0.929,0.526 1.295,0.917 0.366,-0.391 0.794,-0.697 1.286,-0.917 0.492,-0.221 1.021,-0.331 1.588,-0.331 l 3.593,0 c 0.555,0 1.071,0.101 1.551,0.303 0.479,0.201 0.901,0.485 1.267,0.85 0.352,0.366 0.633,0.788 0.841,1.267 C -0.104,-1.053 0,-0.542 0,0" />
          </g>
          <g
             transform="matrix(1.25,0,0,-1.25,1175.8469,1133.7049)"
             id="g4202">
            <path
               inkscape:connector-curvature="0"
               id="path4204"
               style="fill:#3577c2;fill-opacity:1;fill-rule:nonzero;stroke:none"
               d="M 0,0 C 0,-0.555 -0.189,-1.009 -0.567,-1.361 -0.945,-1.74 -1.406,-1.929 -1.948,-1.929 l -4.973,0 c -0.555,0 -1.008,0.189 -1.361,0.568 -0.177,0.176 -0.319,0.381 -0.426,0.614 -0.107,0.233 -0.16,0.482 -0.16,0.747 l 0,1.777 c 0,0.278 0.053,0.533 0.16,0.766 0.107,0.233 0.249,0.438 0.426,0.615 0.353,0.378 0.806,0.567 1.361,0.567 l 4.973,0 c 0.542,0 1.003,-0.189 1.381,-0.567 C -0.189,2.78 0,2.319 0,1.777 L 0,0 Z M 1.002,4.614 C 0.636,4.979 0.214,5.263 -0.265,5.465 -0.744,5.666 -1.255,5.767 -1.796,5.767 l -5.257,0 C -7.608,5.767 -8.121,5.666 -8.594,5.465 -9.067,5.263 -9.486,4.979 -9.852,4.614 -10.217,4.248 -10.504,3.826 -10.712,3.347 -10.92,2.868 -11.024,2.351 -11.024,1.796 l 0,-8.698 2.156,0 0,3.366 c 0.554,-0.29 1.159,-0.435 1.815,-0.435 l 5.257,0 c 0.541,0 1.052,0.101 1.531,0.303 0.479,0.201 0.901,0.485 1.267,0.851 0.366,0.365 0.649,0.784 0.851,1.257 0.202,0.473 0.303,0.986 0.303,1.541 l 0,1.815 C 2.156,2.351 2.055,2.868 1.853,3.347 1.651,3.826 1.368,4.248 1.002,4.614" />
          </g>
          <g
             transform="matrix(1.25,0,0,-1.25,1167.9534,1144.5642)"
             id="g4248">
            <path
               inkscape:connector-curvature="0"
               id="path4250"
               style="fill:#140e0c;fill-opacity:1;fill-rule:nonzero;stroke:none"
               d="m 0,0 c -0.183,0 -0.331,-0.112 -0.331,-0.262 0,-0.145 0.148,-0.261 0.331,-0.261 0.189,0 0.331,0.116 0.331,0.261 C 0.331,-0.112 0.189,0 0,0" />
          </g>
          <g
             transform="matrix(1.25,0,0,-1.25,1249.8694,1144.5642)"
             id="g4304">
            <path
               inkscape:connector-curvature="0"
               id="path4306"
               style="fill:#140e0c;fill-opacity:1;fill-rule:nonzero;stroke:none"
               d="m 0,0 c -0.184,0 -0.331,-0.112 -0.331,-0.262 0,-0.145 0.147,-0.261 0.331,-0.261 0.189,0 0.331,0.116 0.331,0.261 C 0.331,-0.112 0.189,0 0,0" />
          </g>
        </g>
        <g
           id="g4840"
           transform="translate(-618.47377,-1748.2699)"
           style="fill:#ffffff">
          <path
             inkscape:connector-curvature="0"
             id="path4146"
             style="fill:#ffffff;fill-opacity:1;fill-rule:nonzero;stroke:none"
             d="m 1149.9298,1108.1422 7.3137,0 0,-12.1675 -7.3137,0 0,12.1675 z" />
          <path
             inkscape:connector-curvature="0"
             id="path4148"
             style="fill:#ffffff;fill-opacity:1;fill-rule:nonzero;stroke:none"
             d="m 1224.1948,1095.9747 -27.0863,0 0,12.1675 27.0863,0 0,-12.1675 z" />
          <path
             inkscape:connector-curvature="0"
             id="path4150"
             style="fill:#ffffff;fill-opacity:1;fill-rule:nonzero;stroke:none"
             d="m 1149.9298,1092.6185 7.3137,0 0,-12.1675 -7.3137,0 0,12.1675 z" />
          <path
             inkscape:connector-curvature="0"
             id="path4152"
             style="fill:#ffffff;fill-opacity:1;fill-rule:nonzero;stroke:none"
             d="m 1224.1948,1080.451 -27.0863,0 0,12.1675 27.0863,0 0,-12.1675 z" />
          <g
             transform="matrix(1.25,0,0,-1.25,1160.7908,1137.2268)"
             id="g4174"
             style="fill:#ffffff">
            <path
               inkscape:connector-curvature="0"
               id="path4176"
               style="fill:#ffffff;fill-opacity:1;fill-rule:nonzero;stroke:none"
               d="m 0,0 -7.356,0 c -0.328,0 -0.636,0.063 -0.926,0.189 -0.29,0.126 -0.542,0.299 -0.757,0.52 -0.214,0.22 -0.384,0.473 -0.51,0.756 -0.126,0.284 -0.189,0.59 -0.189,0.918 l 0,2.647 c 0,0.327 0.063,0.636 0.189,0.926 0.126,0.29 0.296,0.542 0.51,0.757 0.215,0.214 0.467,0.384 0.757,0.51 0.29,0.126 0.598,0.189 0.926,0.189 l 6.864,0 0,1.173 -6.996,0 C -7.98,8.585 -8.44,8.493 -8.868,8.311 -9.297,8.128 -9.672,7.876 -9.993,7.554 -10.315,7.233 -10.567,6.857 -10.75,6.429 -10.933,6 -11.024,5.54 -11.024,5.049 l 0,-2.685 c 0,-0.492 0.091,-0.949 0.274,-1.371 0.183,-0.423 0.435,-0.794 0.757,-1.116 0.321,-0.321 0.696,-0.574 1.125,-0.756 0.428,-0.183 0.888,-0.274 1.38,-0.274 L 0,-1.153 0,0 Z" />
          </g>
          <g
             transform="matrix(1.25,0,0,-1.25,1143.513,1134.2249)"
             id="g4178"
             style="fill:#ffffff">
            <path
               inkscape:connector-curvature="0"
               id="path4180"
               style="fill:#ffffff;fill-opacity:1;fill-rule:nonzero;stroke:none"
               d="m 0,0 c 0,-0.328 -0.063,-0.637 -0.189,-0.927 -0.126,-0.29 -0.296,-0.542 -0.511,-0.756 -0.214,-0.214 -0.466,-0.385 -0.756,-0.51 -0.29,-0.127 -0.599,-0.19 -0.927,-0.19 l -4.973,0 c -0.328,0 -0.636,0.063 -0.926,0.19 -0.29,0.125 -0.542,0.296 -0.757,0.51 -0.214,0.214 -0.384,0.466 -0.51,0.756 -0.126,0.29 -0.189,0.599 -0.189,0.927 l 0,2.647 c 0,0.328 0.063,0.637 0.189,0.927 0.126,0.29 0.296,0.542 0.51,0.756 0.215,0.214 0.467,0.385 0.757,0.511 0.29,0.126 0.598,0.189 0.926,0.189 l 4.973,0 c 0.328,0 0.637,-0.063 0.927,-0.189 C -1.166,4.715 -0.914,4.544 -0.7,4.33 -0.485,4.116 -0.315,3.864 -0.189,3.574 -0.063,3.284 0,2.975 0,2.647 L 0,0 Z M 0.255,5.172 C -0.066,5.493 -0.441,5.745 -0.87,5.928 -1.299,6.111 -1.759,6.202 -2.25,6.202 l -5.238,0 C -7.98,6.202 -8.44,6.111 -8.868,5.928 -9.297,5.745 -9.672,5.493 -9.993,5.172 -10.315,4.85 -10.567,4.475 -10.75,4.047 -10.933,3.618 -11.024,3.158 -11.024,2.666 l 0,-9.133 1.286,0 0,3.725 c 0.302,-0.252 0.646,-0.451 1.03,-0.595 0.385,-0.145 0.791,-0.218 1.22,-0.218 l 5.238,0 c 0.491,0 0.951,0.091 1.38,0.274 0.429,0.183 0.804,0.435 1.125,0.757 0.322,0.321 0.574,0.696 0.757,1.125 0.182,0.428 0.274,0.888 0.274,1.38 l 0,2.685 C 1.286,3.158 1.194,3.618 1.012,4.047 0.829,4.475 0.577,4.85 0.255,5.172" />
          </g>
          <g
             transform="matrix(1.25,0,0,-1.25,1126.2351,1131.6958)"
             id="g4182"
             style="fill:#ffffff">
            <path
               inkscape:connector-curvature="0"
               id="path4184"
               style="fill:#ffffff;fill-opacity:1;fill-rule:nonzero;stroke:none"
               d="m 0,0 -9.738,0 0,0.624 c 0,0.328 0.063,0.636 0.189,0.927 0.126,0.289 0.296,0.541 0.511,0.756 0.214,0.214 0.466,0.384 0.756,0.51 0.29,0.126 0.598,0.19 0.926,0.19 l 4.973,0 c 0.328,0 0.637,-0.064 0.927,-0.19 C -1.166,2.691 -0.914,2.521 -0.7,2.307 -0.485,2.092 -0.315,1.84 -0.189,1.551 -0.063,1.26 0,0.952 0,0.624 L 0,0 Z M 0.255,3.148 C -0.066,3.47 -0.441,3.722 -0.87,3.905 -1.299,4.087 -1.759,4.179 -2.25,4.179 l -5.238,0 C -7.98,4.179 -8.44,4.087 -8.868,3.905 -9.297,3.722 -9.672,3.47 -9.993,3.148 -10.315,2.827 -10.567,2.452 -10.75,2.023 -10.933,1.595 -11.024,1.135 -11.024,0.643 l 0,-2.685 c 0,-0.492 0.091,-0.952 0.274,-1.381 0.183,-0.428 0.435,-0.803 0.757,-1.125 0.321,-0.321 0.696,-0.573 1.125,-0.756 0.428,-0.183 0.888,-0.274 1.38,-0.274 l 7.488,0 0,1.172 -7.356,0 c -0.328,0 -0.636,0.063 -0.926,0.189 -0.29,0.126 -0.542,0.296 -0.756,0.511 -0.215,0.214 -0.385,0.466 -0.511,0.756 -0.126,0.29 -0.189,0.599 -0.189,0.927 l 0,0.851 11.024,0 0,1.815 c 0,0.492 -0.092,0.952 -0.274,1.38 C 0.829,2.452 0.577,2.827 0.255,3.148" />
          </g>
          <g
             transform="matrix(1.25,0,0,-1.25,1114.844,1147.0237)"
             id="g4206"
             style="fill:#ffffff">
            <path
               inkscape:connector-curvature="0"
               id="path4208"
               style="fill:#ffffff;fill-opacity:1;fill-rule:nonzero;stroke:none"
               d="m 0,0 -1.432,0 0,0.336 c -0.006,0.295 0.349,0.435 0.71,0.435 C -0.373,0.771 0,0.631 0,0.346 L 0,0 Z m -0.722,1.14 c -0.591,0 -1.189,-0.261 -1.189,-0.804 l 0,-0.916 c 0,-0.537 0.598,-0.803 1.189,-0.803 0.444,0 0.911,0.177 1.124,0.532 l -0.426,0.169 c -0.124,-0.225 -0.42,-0.332 -0.698,-0.332 -0.361,0 -0.716,0.14 -0.71,0.434 l 0,0.267 1.882,0 0,0.649 c 0,0.543 -0.592,0.804 -1.172,0.804" />
          </g>
          <g
             transform="matrix(1.25,0,0,-1.25,1120.2355,1145.6567)"
             id="g4210"
             style="fill:#ffffff">
            <path
               inkscape:connector-curvature="0"
               id="path4212"
               style="fill:#ffffff;fill-opacity:1;fill-rule:nonzero;stroke:none"
               d="M 0,0 C -0.237,-0.299 -0.509,-0.622 -0.757,-0.916 L -1.52,0 -2.1,0 -1.041,-1.21 -2.1,-2.421 l 0.58,0 c 0.248,0.295 0.514,0.617 0.763,0.911 L 0,-2.421 l 0.58,0 L -0.473,-1.21 0.58,0 0,0 Z" />
          </g>
          <g
             transform="matrix(1.25,0,0,-1.25,1124.7028,1148.2623)"
             id="g4214"
             style="fill:#ffffff">
            <path
               inkscape:connector-curvature="0"
               id="path4216"
               style="fill:#ffffff;fill-opacity:1;fill-rule:nonzero;stroke:none"
               d="m 0,0 c -0.355,0 -0.71,0.14 -0.71,0.425 l 0,0.893 c 0,0.294 0.355,0.435 0.71,0.435 0.272,0 0.562,-0.075 0.674,-0.243 L 0.716,1.463 1.1,1.645 C 0.87,1.968 0.432,2.127 0,2.127 -0.586,2.127 -1.183,1.86 -1.183,1.318 l 0,-0.883 c 0,-0.542 0.597,-0.809 1.183,-0.809 0.473,0 0.97,0.192 1.148,0.594 L 0.716,0.383 C 0.621,0.122 0.308,0 0,0" />
          </g>
          <g
             transform="matrix(1.25,0,0,-1.25,1130.9004,1147.0237)"
             id="g4218"
             style="fill:#ffffff">
            <path
               inkscape:connector-curvature="0"
               id="path4220"
               style="fill:#ffffff;fill-opacity:1;fill-rule:nonzero;stroke:none"
               d="m 0,0 -1.432,0 0,0.336 c -0.006,0.295 0.349,0.435 0.71,0.435 C -0.373,0.771 0,0.631 0,0.346 L 0,0 Z m -0.722,1.14 c -0.592,0 -1.189,-0.261 -1.189,-0.804 l 0,-0.916 c 0,-0.537 0.597,-0.803 1.189,-0.803 0.444,0 0.911,0.177 1.124,0.532 l -0.426,0.169 c -0.124,-0.225 -0.42,-0.332 -0.698,-0.332 -0.361,0 -0.716,0.14 -0.71,0.434 l 0,0.267 1.882,0 0,0.649 c 0,0.543 -0.592,0.804 -1.172,0.804" />
          </g>
          <g
             transform="matrix(1.25,0,0,-1.25,1134.761,1147.719)"
             id="g4222"
             style="fill:#ffffff">
            <path
               inkscape:connector-curvature="0"
               id="path4224"
               style="fill:#ffffff;fill-opacity:1;fill-rule:nonzero;stroke:none"
               d="m 0,0 0,2.496 -0.473,0 0,-2.496 c 0,-0.495 0.372,-0.79 1.041,-0.79 l 0,0.374 C 0.177,-0.416 0,-0.266 0,0" />
          </g>
          <g
             transform="matrix(1.25,0,0,-1.25,1138.4368,1147.719)"
             id="g4226"
             style="fill:#ffffff">
            <path
               inkscape:connector-curvature="0"
               id="path4228"
               style="fill:#ffffff;fill-opacity:1;fill-rule:nonzero;stroke:none"
               d="m 0,0 0,2.496 -0.473,0 0,-2.496 c 0,-0.495 0.372,-0.79 1.041,-0.79 l 0,0.374 C 0.177,-0.416 0,-0.266 0,0" />
          </g>
          <g
             transform="matrix(1.25,0,0,-1.25,1143.8948,1147.0237)"
             id="g4230"
             style="fill:#ffffff">
            <path
               inkscape:connector-curvature="0"
               id="path4232"
               style="fill:#ffffff;fill-opacity:1;fill-rule:nonzero;stroke:none"
               d="m 0,0 -1.432,0 0,0.336 c -0.006,0.295 0.349,0.435 0.71,0.435 C -0.373,0.771 0,0.631 0,0.346 L 0,0 Z m -0.722,1.14 c -0.591,0 -1.189,-0.261 -1.189,-0.804 l 0,-0.916 c 0,-0.537 0.598,-0.803 1.189,-0.803 0.444,0 0.911,0.177 1.124,0.532 l -0.426,0.169 c -0.124,-0.225 -0.42,-0.332 -0.698,-0.332 -0.361,0 -0.716,0.14 -0.71,0.434 l 0,0.267 1.882,0 0,0.649 c 0,0.543 -0.592,0.804 -1.172,0.804" />
          </g>
          <g
             transform="matrix(1.25,0,0,-1.25,1148.6651,1145.6567)"
             id="g4234"
             style="fill:#ffffff">
            <path
               inkscape:connector-curvature="0"
               id="path4236"
               style="fill:#ffffff;fill-opacity:1;fill-rule:nonzero;stroke:none"
               d="m 0,0 c -0.385,0 -0.805,-0.093 -1.195,-0.201 l 0,-2.22 0.473,0 0,1.954 c 0.172,0.051 0.45,0.107 0.722,0.107 0.331,0 0.686,-0.14 0.686,-0.434 l 0,-1.627 0.468,0 0,1.627 C 1.154,-0.257 0.58,-0.009 0,0" />
          </g>
          <g
             transform="matrix(1.25,0,0,-1.25,1154.3526,1148.2623)"
             id="g4238"
             style="fill:#ffffff">
            <path
               inkscape:connector-curvature="0"
               id="path4240"
               style="fill:#ffffff;fill-opacity:1;fill-rule:nonzero;stroke:none"
               d="m 0,0 c -0.355,0 -0.71,0.14 -0.71,0.425 l 0,0.893 c 0,0.294 0.355,0.435 0.71,0.435 0.272,0 0.562,-0.075 0.674,-0.243 L 0.716,1.463 1.1,1.645 C 0.87,1.968 0.432,2.127 0,2.127 -0.586,2.127 -1.183,1.86 -1.183,1.318 l 0,-0.883 c 0,-0.542 0.597,-0.809 1.183,-0.809 0.473,0 0.97,0.192 1.148,0.594 L 0.716,0.383 C 0.621,0.122 0.308,0 0,0" />
          </g>
          <g
             transform="matrix(1.25,0,0,-1.25,1160.5501,1147.0237)"
             id="g4242"
             style="fill:#ffffff">
            <path
               inkscape:connector-curvature="0"
               id="path4244"
               style="fill:#ffffff;fill-opacity:1;fill-rule:nonzero;stroke:none"
               d="m 0,0 -1.432,0 0,0.336 c -0.006,0.295 0.349,0.435 0.71,0.435 C -0.373,0.771 0,0.631 0,0.346 L 0,0 Z m -0.722,1.14 c -0.591,0 -1.189,-0.261 -1.189,-0.804 l 0,-0.916 c 0,-0.537 0.598,-0.803 1.189,-0.803 0.444,0 0.911,0.177 1.124,0.532 l -0.426,0.169 c -0.124,-0.225 -0.42,-0.332 -0.698,-0.332 -0.361,0 -0.716,0.14 -0.71,0.434 l 0,0.267 1.882,0 0,0.649 c 0,0.543 -0.592,0.804 -1.172,0.804" />
          </g>
          <path
             inkscape:connector-curvature="0"
             id="path4246"
             style="fill:#ffffff;fill-opacity:1;fill-rule:nonzero;stroke:none"
             d="m 1167.6723,1148.6835 0.5912,0 0,-3.0438 -0.5912,0 0,3.0438 z" />
          <g
             transform="matrix(1.25,0,0,-1.25,1172.6868,1145.6567)"
             id="g4252"
             style="fill:#ffffff">
            <path
               inkscape:connector-curvature="0"
               id="path4254"
               style="fill:#ffffff;fill-opacity:1;fill-rule:nonzero;stroke:none"
               d="m 0,0 c -0.385,0 -0.805,-0.093 -1.195,-0.201 l 0,-2.22 0.473,0 0,1.954 c 0.172,0.051 0.45,0.107 0.722,0.107 0.331,0 0.686,-0.14 0.686,-0.434 l 0,-1.627 0.468,0 0,1.627 C 1.154,-0.257 0.58,-0.009 0,0" />
          </g>
          <g
             transform="matrix(1.25,0,0,-1.25,1183.1149,1147.7248)"
             id="g4256"
             style="fill:#ffffff">
            <path
               inkscape:connector-curvature="0"
               id="path4258"
               style="fill:#ffffff;fill-opacity:1;fill-rule:nonzero;stroke:none"
               d="m 0,0 c 0.006,-0.29 -0.349,-0.435 -0.704,-0.439 -0.243,0 -0.491,0.042 -0.716,0.107 l 0,1.617 c 0.225,0.052 0.485,0.056 0.728,0.056 0.349,0 0.698,-0.159 0.692,-0.439 L 0,0 Z m -0.692,1.697 c -0.391,0 -0.799,-0.071 -1.201,-0.173 l 0,-3.136 0.473,0 0,0.934 c 0.219,-0.112 0.461,-0.131 0.71,-0.131 0.598,-0.004 1.189,0.281 1.189,0.809 l 0,0.893 c 0,0.542 -0.586,0.799 -1.171,0.804" />
          </g>
          <g
             transform="matrix(1.25,0,0,-1.25,1188.743,1147.7306)"
             id="g4260"
             style="fill:#ffffff">
            <path
               inkscape:connector-curvature="0"
               id="path4262"
               style="fill:#ffffff;fill-opacity:1;fill-rule:nonzero;stroke:none"
               d="m 0,0 c 0,-0.304 -0.373,-0.439 -0.704,-0.439 -0.343,0 -0.716,0.135 -0.716,0.439 l 0,0.911 c 0,0.304 0.373,0.435 0.716,0.435 C -0.373,1.346 0,1.215 0,0.911 L 0,0 Z M -0.704,1.72 C -1.296,1.715 -1.893,1.449 -1.893,0.911 l 0,-0.911 c 0,-0.542 0.597,-0.804 1.189,-0.809 0.586,0.005 1.177,0.267 1.177,0.809 l 0,0.911 c 0,0.538 -0.591,0.804 -1.177,0.809" />
          </g>
          <g
             transform="matrix(1.25,0,0,-1.25,1195.377,1147.5495)"
             id="g4264"
             style="fill:#ffffff">
            <path
               inkscape:connector-curvature="0"
               id="path4266"
               style="fill:#ffffff;fill-opacity:1;fill-rule:nonzero;stroke:none"
               d="m 0,0 -0.101,-0.537 -0.041,0 L -0.237,0 -0.71,1.514 l -0.521,0 C -1.385,1.014 -1.544,0.509 -1.698,0 l -0.083,-0.537 -0.041,0 -0.113,0.537 -0.574,1.514 -0.491,0 0.923,-2.421 0.568,0 0.545,1.758 0.538,-1.758 0.568,0 0.917,2.421 -0.485,0 L 0,0 Z" />
          </g>
          <g
             transform="matrix(1.25,0,0,-1.25,1201.4859,1147.0237)"
             id="g4268"
             style="fill:#ffffff">
            <path
               inkscape:connector-curvature="0"
               id="path4270"
               style="fill:#ffffff;fill-opacity:1;fill-rule:nonzero;stroke:none"
               d="m 0,0 -1.432,0 0,0.336 c -0.006,0.295 0.349,0.435 0.71,0.435 C -0.373,0.771 0,0.631 0,0.346 L 0,0 Z m -0.722,1.14 c -0.591,0 -1.189,-0.261 -1.189,-0.804 l 0,-0.916 c 0,-0.537 0.598,-0.803 1.189,-0.803 0.444,0 0.911,0.177 1.124,0.532 l -0.426,0.169 c -0.124,-0.225 -0.42,-0.332 -0.698,-0.332 -0.361,0 -0.716,0.14 -0.71,0.434 l 0,0.267 1.882,0 0,0.649 c 0,0.543 -0.592,0.804 -1.172,0.804" />
          </g>
          <g
             transform="matrix(1.25,0,0,-1.25,1205.7829,1145.6567)"
             id="g4272"
             style="fill:#ffffff">
            <path
               inkscape:connector-curvature="0"
               id="path4274"
               style="fill:#ffffff;fill-opacity:1;fill-rule:nonzero;stroke:none"
               d="m 0,0 c -0.485,-0.075 -0.876,-0.35 -0.876,-0.785 l 0,-1.636 0.474,0 0,1.636 c 0,0.224 0.23,0.364 0.473,0.416 0.195,0.037 0.248,0.019 0.467,-0.01 l 0,0.384 C 0.361,0.033 0.166,0.033 0,0" />
          </g>
          <g
             transform="matrix(1.25,0,0,-1.25,1214.1328,1148.2623)"
             id="g4276"
             style="fill:#ffffff">
            <path
               inkscape:connector-curvature="0"
               id="path4278"
               style="fill:#ffffff;fill-opacity:1;fill-rule:nonzero;stroke:none"
               d="m 0,0 c -0.355,0 -0.71,0.14 -0.71,0.425 l 0,0.893 c 0,0.294 0.355,0.435 0.71,0.435 0.272,0 0.562,-0.075 0.674,-0.243 L 0.716,1.463 1.101,1.645 C 0.87,1.968 0.432,2.127 0,2.127 -0.586,2.127 -1.183,1.86 -1.183,1.318 l 0,-0.883 c 0,-0.542 0.597,-0.809 1.183,-0.809 0.473,0 0.97,0.192 1.148,0.594 L 0.716,0.383 C 0.621,0.122 0.308,0 0,0" />
          </g>
          <g
             transform="matrix(1.25,0,0,-1.25,1220.419,1147.7306)"
             id="g4280"
             style="fill:#ffffff">
            <path
               inkscape:connector-curvature="0"
               id="path4282"
               style="fill:#ffffff;fill-opacity:1;fill-rule:nonzero;stroke:none"
               d="m 0,0 c 0,-0.304 -0.373,-0.439 -0.704,-0.439 -0.343,0 -0.716,0.135 -0.716,0.439 l 0,0.911 c 0,0.304 0.373,0.435 0.716,0.435 C -0.373,1.346 0,1.215 0,0.911 L 0,0 Z M -0.704,1.72 C -1.296,1.715 -1.893,1.449 -1.893,0.911 l 0,-0.911 c 0,-0.542 0.597,-0.804 1.189,-0.809 0.586,0.005 1.177,0.267 1.177,0.809 l 0,0.911 c 0,0.538 -0.591,0.804 -1.177,0.809" />
          </g>
          <g
             transform="matrix(1.25,0,0,-1.25,1225.2191,1145.6567)"
             id="g4284"
             style="fill:#ffffff">
            <path
               inkscape:connector-curvature="0"
               id="path4286"
               style="fill:#ffffff;fill-opacity:1;fill-rule:nonzero;stroke:none"
               d="m 0,0 c -0.385,0 -0.805,-0.093 -1.195,-0.201 l 0,-2.22 0.473,0 0,1.954 c 0.172,0.051 0.45,0.107 0.722,0.107 0.331,0 0.686,-0.14 0.686,-0.434 l 0,-1.627 0.468,0 0,1.627 C 1.154,-0.257 0.58,-0.009 0,0" />
          </g>
          <g
             transform="matrix(1.25,0,0,-1.25,1230.8471,1147.6604)"
             id="g4288"
             style="fill:#ffffff">
            <path
               inkscape:connector-curvature="0"
               id="path4290"
               style="fill:#ffffff;fill-opacity:1;fill-rule:nonzero;stroke:none"
               d="m 0,0 -0.124,-0.481 -0.036,0 -0.136,0.476 -0.716,1.608 -0.503,0 1.083,-2.421 0.562,0 1.083,2.421 -0.503,0 L 0,0 Z" />
          </g>
          <g
             transform="matrix(1.25,0,0,-1.25,1237.0376,1147.0237)"
             id="g4292"
             style="fill:#ffffff">
            <path
               inkscape:connector-curvature="0"
               id="path4294"
               style="fill:#ffffff;fill-opacity:1;fill-rule:nonzero;stroke:none"
               d="m 0,0 -1.432,0 0,0.336 c -0.006,0.295 0.349,0.435 0.71,0.435 C -0.373,0.771 0,0.631 0,0.346 L 0,0 Z m -0.722,1.14 c -0.592,0 -1.189,-0.261 -1.189,-0.804 l 0,-0.916 c 0,-0.537 0.597,-0.803 1.189,-0.803 0.444,0 0.911,0.177 1.124,0.532 l -0.426,0.169 c -0.124,-0.225 -0.42,-0.332 -0.698,-0.332 -0.361,0 -0.716,0.14 -0.71,0.434 l 0,0.267 1.882,0 0,0.649 c 0,0.543 -0.592,0.804 -1.172,0.804" />
          </g>
          <g
             transform="matrix(1.25,0,0,-1.25,1241.3345,1145.6567)"
             id="g4296"
             style="fill:#ffffff">
            <path
               inkscape:connector-curvature="0"
               id="path4298"
               style="fill:#ffffff;fill-opacity:1;fill-rule:nonzero;stroke:none"
               d="m 0,0 c -0.485,-0.075 -0.876,-0.35 -0.876,-0.785 l 0,-1.636 0.474,0 0,1.636 c 0,0.224 0.23,0.364 0.473,0.416 0.195,0.037 0.249,0.019 0.467,-0.01 l 0,0.384 C 0.361,0.033 0.166,0.033 0,0" />
          </g>
          <g
             transform="matrix(1.25,0,0,-1.25,1245.7571,1146.9302)"
             id="g4300"
             style="fill:#ffffff">
            <path
               inkscape:connector-curvature="0"
               id="path4302"
               style="fill:#ffffff;fill-opacity:1;fill-rule:nonzero;stroke:none"
               d="m 0,0 c -0.266,0.037 -0.686,0.103 -0.692,0.35 0,0.272 0.378,0.337 0.645,0.337 0.213,0 0.426,-0.056 0.615,-0.21 L 0.876,0.762 C 0.621,0.958 0.272,1.052 -0.047,1.052 -0.55,1.052 -1.16,0.86 -1.16,0.35 c 0,-0.518 0.574,-0.64 1.077,-0.71 l -0.006,0 c 0.278,-0.042 0.61,-0.107 0.61,-0.369 0.006,-0.248 -0.29,-0.355 -0.568,-0.36 -0.314,-0.009 -0.669,0.094 -0.876,0.337 l -0.355,-0.173 c 0.296,-0.374 0.751,-0.514 1.231,-0.505 0.526,0.009 1.035,0.22 1.035,0.701 C 0.982,-0.238 0.479,-0.07 0,0" />
          </g>
          <path
             inkscape:connector-curvature="0"
             id="path4308"
             style="fill:#ffffff;fill-opacity:1;fill-rule:nonzero;stroke:none"
             d="m 1249.5885,1148.6835 0.5913,0 0,-3.0438 -0.5913,0 0,3.0438 z" />
          <g
             transform="matrix(1.25,0,0,-1.25,1255.4086,1147.7306)"
             id="g4310"
             style="fill:#ffffff">
            <path
               inkscape:connector-curvature="0"
               id="path4312"
               style="fill:#ffffff;fill-opacity:1;fill-rule:nonzero;stroke:none"
               d="m 0,0 c 0,-0.304 -0.373,-0.439 -0.704,-0.439 -0.343,0 -0.716,0.135 -0.716,0.439 l 0,0.911 c 0,0.304 0.373,0.435 0.716,0.435 C -0.373,1.346 0,1.215 0,0.911 L 0,0 Z M -0.704,1.72 C -1.296,1.715 -1.893,1.449 -1.893,0.911 l 0,-0.911 c 0,-0.542 0.597,-0.804 1.189,-0.809 0.586,0.005 1.177,0.267 1.177,0.809 l 0,0.911 c 0,0.538 -0.591,0.804 -1.177,0.809" />
          </g>
          <g
             transform="matrix(1.25,0,0,-1.25,1260.2086,1145.6567)"
             id="g4314"
             style="fill:#ffffff">
            <path
               inkscape:connector-curvature="0"
               id="path4316"
               style="fill:#ffffff;fill-opacity:1;fill-rule:nonzero;stroke:none"
               d="m 0,0 c -0.385,0 -0.805,-0.093 -1.195,-0.201 l 0,-2.22 0.473,0 0,1.954 c 0.172,0.051 0.45,0.107 0.722,0.107 0.331,0 0.686,-0.14 0.686,-0.434 l 0,-1.627 0.468,0 0,1.627 C 1.154,-0.257 0.58,-0.009 0,0" />
          </g>
        </g>
      </g>
    </g>
  </g>
</svg>
